<svg xmlns="http://www.w3.org/2000/svg" viewBox="0 0 165.173 98.84">
	<path fill="#959596" d="M79.444 31.408c2.907 0 5.73.265 8.424.757l6.41-6.68c-4.482-1.552-9.515-2.422-14.834-2.422-9.045 0-17.256 2.521-23.345 6.628l5.586 5.291c5.166-2.263 11.244-3.574 17.759-3.574"/>
	<path fill="#fff" d="M79.444 23.063c5.32 0 10.352.87 14.835 2.423l6.97-7.256c-6.504-2.565-13.922-4.02-21.805-4.02-11.75 0-22.472 3.233-30.655 8.553l7.31 6.928c6.089-4.107 14.3-6.628 23.345-6.628"/>
	<path fill="#959596" d="M45.977 51.455c.586-2.396 1.668-4.667 3.16-6.767l-2.807-2.84a17.84 17.84 0 0 0-.864 5.434c0 1.422.177 2.815.51 4.173M25.229 67.155l-1.179 6.111 11.73-5.05c-.74-1.557-.886-3.587-1.314-5.238l-9.237 4.177M16.975.695 0 93.652l8.029.654L24.837-.002l-7.862.697"/>
	<path fill="#ed1c24" d="M74.058 54.188V46.67l-12.33-11.688-5.583-5.291-7.313-6.928L24.809-.004 7.995 94.306l35.578-15.64c-3.542-3.13-6.053-6.465-7.918-10.396l-11.582 4.967 1.162-6.08 7.505-39.113.627-3.283 6.196 6.238 7.973 8.029 3.422 3.452L65.03 54.603l-13.66 6.26c3.548 3.543 7.75 6.666 13.416 8.43l17.044-7.654-7.773-7.451"/>
	<path fill="#959596" d="M112.909 51.455c.33-1.358.513-2.751.513-4.173 0-4.198-1.536-8.162-4.177-11.603l-4.047 4.19c3.887 3.234 6.647 7.218 7.71 11.586M120.516 91.24l-9.59-9.214a47.726 47.726 0 0 1-4.89 2.91l14.48 13.904 44.65-46.506-.049-7.53-44.601 46.435M87.98 60.006l-7.9-7.585-6.043-5.77-.021 7.537 8.497 8.161 8.122 7.802a41.618 41.618 0 0 0 5.895-1.934l-8.55-8.211"/>
	<path fill="#959596" d="m119.026 17.948-6.357 6.618-7.01 7.306-4.781 4.975-9.058 9.432 3.795 3.642 9.637-10.033 4.03-4.196 7.382-7.686 2.362-2.462 24.553 23.536 3.797-3.943-28.35-27.189"/>
	<path fill="#fff" d="m116.664 28.006-7.383 7.686c2.642 3.441 4.14 7.392 4.14 11.59 0 1.422-.181 2.815-.512 4.173-.862 3.532-2.799 6.804-5.562 9.637-2.826 2.897-6.52 5.338-10.817 7.125a41.618 41.618 0 0 1-5.895 1.934 46.56 46.56 0 0 1-11.191 1.348c-4.832 0-9.422-.719-13.581-2.015-5.668-1.766-10.527-4.598-14.078-8.144a23.766 23.766 0 0 1-3.339-4.15c-1.137-1.804-1.977-3.725-2.47-5.735a17.456 17.456 0 0 1-.51-4.173c0-1.872.307-3.69.864-5.435l-8.478-8.582c-3.106 4.604-4.858 9.793-4.858 15.288 0 1.412.131 2.805.355 4.172.544 3.323 1.735 6.493 3.467 9.451a31.962 31.962 0 0 0 3.014 4.288c2.983 3.597 6.829 6.759 11.337 9.321 7.828 4.452 17.63 7.109 28.277 7.109 7.45 0 14.48-1.299 20.717-3.602a51.89 51.89 0 0 0 5.446-2.365c4.02-2.036 7.588-4.522 10.565-7.366 4.996-4.772 8.333-10.54 9.365-16.836a25.61 25.61 0 0 0 .354-4.172c0-7.706-3.432-14.82-9.227-20.547"/>
	<path fill="#1c63b7" d="m87.94 60.061 8.52 8.185c4.293-1.79 8.018-4.199 10.85-7.099l-11.685-11.22-3.794-3.64 9.01-9.382 4.775-4.977 7.013-7.306 6.358-6.617 28.282 27.153-3.796 3.957-23.17 24.124c-2.441 3.346-5.607 6.315-9.35 8.877l9.522 9.184 44.652-46.502L118.624.148l-17.417 18.138-6.97 7.258-6.414 6.679L74.037 46.65l13.902 13.411"/>
	<path fill="#959596" d="m48.64 57.422.247.408c.683 1.085 1.62 2.076 2.507 3.067l13.89-6.419L33.363 24.75l-.87 4.598 25.044 24.797-8.896 3.277"/>
	<path fill="#959596" d="M125.89 48.553a25.61 25.61 0 0 1-.353 4.172c-1.032 6.296-4.369 12.064-9.365 16.836-2.977 2.844-6.544 5.33-10.565 7.366a51.89 51.89 0 0 1-5.446 2.365c-6.236 2.303-13.268 3.602-20.717 3.602-10.647 0-20.45-2.657-28.277-7.109-4.508-2.562-8.354-5.724-11.337-9.321a31.962 31.962 0 0 1-3.014-4.288c-1.732-2.958-2.923-6.128-3.467-9.45a25.744 25.744 0 0 1-.355-4.173c0-.446.035-.884.056-1.322-.004-.024-.013-.058-.015-.08-.227 1.37-.04 8.337-.04 9.749 0 2.241.299 4.427.852 6.548a27.307 27.307 0 0 0 1.765 4.822c1.865 3.93 4.663 7.534 8.206 10.665 8.526 7.519 21.32 12.304 35.626 12.304 9.927 0 19.119-2.309 26.668-6.23a47.396 47.396 0 0 0 4.878-2.911c3.743-2.561 6.912-5.57 9.352-8.914 3.538-4.841 5.549-10.39 5.549-16.284 0-1.242.106-7.135-.013-9.475-.021-.32.013.721.013 1.128M125.732 96.181h-.886v-.32h2.15v.32h-.887v2.585h-.377v-2.585M129.682 97.49c-.019-.404-.046-.892-.04-1.253h-.014c-.1.34-.22.702-.366 1.1l-.515 1.412h-.282l-.472-1.383a13.728 13.728 0 0 1-.336-1.129h-.009c-.008.36-.03.85-.056 1.283l-.075 1.246h-.358l.203-2.904h.477l.496 1.405c.12.358.22.676.294.977h.012c.074-.292.178-.61.305-.977l.518-1.405h.479l.181 2.904h-.366l-.076-1.277"/>
</svg>